<svg xmlns="http://www.w3.org/2000/svg" width="497" height="399" viewBox="0 0 497 399">
  <path id="Контур_32" data-name="Контур 32" d="M472.158,277.318a55.8,55.8,0,0,0-3.65-13.967,6.323,6.323,0,0,0-3.215-3.959,6.627,6.627,0,0,0-3.19-.036l-16.38,2.506a6.28,6.28,0,0,0-3.737,1.452c-2.133,2.243-.033,5.854-.1,8.949-.073,3.479-3.166,6.3-6.52,7.238a24.653,24.653,0,0,1-10.359-.128l-22.9-3.558a37.764,37.764,0,0,0,17.327-11.559c3.014-3.569,4.618-10.233.262-11.924a10.7,10.7,0,0,0-3.978-.319c-10.377.081-18.543-8.581-28.257-12.228A31.249,31.249,0,0,0,352.3,250.263l12.2.588a5.417,5.417,0,0,1,3.25.866c2.674,2.2-.65,6.415-.274,9.854.489,4.468,6.424,5.422,10.9,5.874s10.148,4.085,8,8.032c-22.484,7.742-45.364-15.134-68.977-12.318-5.976.713-11.62,3.06-17.454,4.536-35.643,9.015-72.492-15.039-108.9-9.944a138.327,138.327,0,0,0-23.773,6.268c-4.956,1.627-10.125,3.384-13.726,7.157s-4.971,10.224-1.56,14.169a79.8,79.8,0,0,1-27.955-2.656,15.655,15.655,0,0,1,8.052,13.8,165.9,165.9,0,0,0-42.49,12.952,71.546,71.546,0,0,0,8.794,11.711L79.792,333.083c6.279,1.581,9.525,10.14,5.874,15.486,6.51-2.9,10.545-10.385,17.507-11.9,4.561-.995,9.2.87,13.528,2.622s9.082,3.451,13.561,2.136,7.783-7.121,4.937-10.82a231.812,231.812,0,0,1,58.867-9.194,7.384,7.384,0,0,1,4.458.846c2.6,1.8,1.912,5.688,1.773,8.842s2.32,7.3,5.14,5.878c-3.318,2.876-.482,8.291,2.7,11.316s7.02,7.2,5.071,11.133c-.509,1.027-1.371,1.848-1.861,2.885-1.445,3.058.849,6.624,3.554,8.655s6.019,3.451,7.9,6.263,1.026,7.736-2.335,8.128l-9.552-12.124a24.856,24.856,0,0,0-6.452,12.223c10.129,8.277,11.652,25.125,3.173,35.084-4.333,5.089-10.5,8.182-15.874,12.151S181.406,442.313,181.419,449c.023,11.546-.92,22.273,3.408,32.979a507.967,507.967,0,0,0,27.589,57.54c2.729,4.88,6.257,10.228,11.786,11.068q-10.481-25.508-18.871-51.81c3.643.014,7.852.3,9.988,3.254,1.768,2.443,1.388,5.765,1.938,8.73a27.036,27.036,0,0,0,3.45,8.107l33.368,59.419c2.766,4.926,5.939,10.213,11.226,12.208,3.38,1.275,7.291,1.035,10.4,2.871,2.439,1.439,4.081,3.994,6.567,5.35,7.029,3.833,16.8-3.518,23.373,1.058,1.878,1.309,3.073,3.388,4.8,4.886,6.067,5.252,16.019,1.739,23.023,5.657,4.514,2.525,6.853,7.575,9.261,12.152,6.031,11.464,40.092,15.768,34.784,14.262-3.376-.941-6.99-1.045-10.21-2.429a14.335,14.335,0,0,1-6.223-19.889,17.843,17.843,0,0,0-3.051-21.468c-5.662-5.082-13.853-6.31-21.446-5.8-1.988-4.338,1.336-9.232,4.919-12.384s7.934-6.251,8.714-10.958c1.227-7.4-8.223-13.028-15.4-10.82s-11.756,9.175-14.783,16.043c-1.737,3.941-3.214,8.09-5.954,11.413s-7.152,5.7-11.326,4.636c-5.909-1.51-8.191-8.527-9.5-14.482-1.754-7.989-3.519-16.09-3.152-24.261s3.123-16.561,9.151-22.093c9.822-9.014,24.889-8.13,38.145-6.693-3.132-3.527-2.358-9.472.993-12.792a14.552,14.552,0,0,1,13.186-3.239,18.172,18.172,0,0,1,10.216,6.106c3.767,4.591,4.838,10.79,7.685,16s9.249,9.656,14.49,6.86c4.526-2.415,5.245-8.689,4.118-13.693s-3.519-9.869-3.111-14.981c.779-9.755,10.894-15.627,19.82-19.645s19.148-9.421,20.562-19.1a17.414,17.414,0,0,1,1.059-5.552,10.893,10.893,0,0,1,4-3.757c26.052-17.211,52.537-34.632,82.313-44.037,1.549-.489,1.731.054,3.31-.329,2.21-1.277.746-4.808-1.373-6.231s-4.95-2.514-5.487-5.008c-.4-1.833.685-3.634.966-5.488.69-4.557-4.763-8.763-9-6.942-2.392-3.167,2.341-6.846,6.168-7.9a167.547,167.547,0,0,1,35.188-5.746,6.339,6.339,0,0,1,4,.681c2,1.384,1.743,4.559.327,6.534s-3.62,3.216-5.385,4.888a14.692,14.692,0,0,0-3.813,14.78c6.212,3.159,12.967,6.411,19.847,5.3s12.988-8.841,9.754-15.014c-3.012-5.748-12.059-7.044-13.614-13.344-1.822-7.376,8.623-13.936,6.27-21.16-1.031-3.164-4.185-5.027-6.606-7.311a19.834,19.834,0,0,1-4.343-22,25.042,25.042,0,0,1-21.958-6.869c-5.252-5.3-9.442-13.657-16.9-13.42-6.844.218-12.739,8.2-19.138,5.764-1.574-.6-3.234-1.818-4.76-1.1a3.932,3.932,0,0,0-1.775,2.946c-1.626,7.773,1.171,16.629-3.066,23.346-4.611,7.309-15.278,8.322-20.868,14.913-3.035,3.578-4.21,8.4-7,12.171s-8.71,6.17-12.057,2.883a16.61,16.61,0,0,0-4.515-20.2A44.351,44.351,0,0,0,426.933,341a59.154,59.154,0,0,1-11.14-6.207,10.972,10.972,0,0,1-4.09-4.375,9.965,9.965,0,0,1,.28-6.918A28.293,28.293,0,0,1,434.5,304.843c4.457-.606,9.645-.393,12.594-3.788,1.561-1.8,2.38-4.512,4.645-5.242a6.853,6.853,0,0,1,4.289.528l16.636,5.854a11.679,11.679,0,0,0,5.926.98,4.017,4.017,0,0,0,3.474-4.221c-.532-2.762-4.783-4.087-4.4-6.873a4.588,4.588,0,0,1,1.392-2.34,59.488,59.488,0,0,1,47.173-18.622c2.1,3.448-1.221,7.53-3.984,10.473s-4.984,8.2-1.642,10.467a9.165,9.165,0,0,0,4.43,1,38.687,38.687,0,0,1,11.79,3.575q8.623,3.751,16.915,8.209c-.488-3.644-.954-7.482.427-10.889s5.308-6.079,8.738-4.752c3.305,1.279,5,5.654,8.522,6.055,4.7.535,6.55-6.4,4.588-10.7s-5.846-7.9-6.171-12.615c-.219-3.181.992-7.126-1.549-9.052a6.918,6.918,0,0,0-3-1.051l-63.464-11.675c-3.769-.693-9.214-.162-9.381,3.665-.093,2.136,1.816,4.25.97,6.214-.9,2.1-3.866,1.9-6.026,2.646-3.35,1.15-5.031,5.127-4.709,8.653a24.074,24.074,0,0,0,3.975,9.752C482.536,279.361,476.286,279.044,472.158,277.318Z" transform="translate(-79.792 -238.016)" fill="#00dba8"/>
</svg>
