<svg width="60" height="60" viewBox="0 0 60 60" fill="none" xmlns="http://www.w3.org/2000/svg">
<path d="M30 0C13.4315 0 0 13.4315 0 30C0 46.5686 13.4315 60 30 60C46.5686 60 60 46.5686 60 30C60 13.4315 46.5686 0 30 0ZM22.5627 8.1307C23.6552 8.7189 24.9465 9.27535 26.4381 9.8005C27.9297 10.3257 29.4109 10.5889 30.8815 10.5889C31.9668 10.5868 33.0494 10.3174 33.9703 9.64285C34.8621 9.10845 35.7251 8.68205 36.8693 8.7918C38.0449 8.92025 39.283 9.32505 40.5244 9.3921C42.079 10.2324 43.5922 11.2813 45.0628 12.5418C44.3485 12.5838 43.591 12.659 42.7927 12.7641C41.9943 12.8692 41.218 13.0252 40.4617 13.2352C39.7054 13.4453 39.0118 13.7198 38.3815 14.0559C37.7513 14.392 37.2889 14.8112 36.9948 15.3154C36.5326 16.0717 36.2074 16.7126 36.0184 17.2378C35.6292 18.3268 35.7212 20.0642 34.8215 20.8624C34.6325 20.9885 34.4746 21.1351 34.3485 21.3031C34.2224 21.4712 34.1698 21.6912 34.1908 21.9643C34.2118 22.2374 34.3491 22.6265 34.6012 23.1307C34.7272 23.4249 34.8306 23.7819 34.9146 24.2021C35.7128 24.1995 36.5407 24.0795 37.2474 23.5714L41.4078 23.9495C42.4817 22.7398 43.7332 22.7197 44.8101 23.9495C45.1463 24.2856 45.5034 24.7913 45.8815 25.4636L44.1168 26.6603C43.6966 26.5343 43.1928 26.2824 42.6046 25.9043C42.3111 25.7362 42.016 25.5464 41.7212 25.3363C40.0445 24.5225 36.7613 25.4702 34.9146 25.5889C34.6739 26.0705 34.4798 26.5421 33.9078 26.6604C33.8084 26.9721 33.9044 27.3064 33.7805 27.6065C32.9821 28.867 32.7096 30.1903 32.9617 31.5768C33.4239 33.7617 34.5573 34.8538 36.3641 34.8538H37.0574C37.9397 34.8538 38.5601 34.8951 38.9172 34.9792C39.2744 35.0632 39.453 35.1271 39.453 35.1692C39.2429 35.6734 39.1695 36.0719 39.2326 36.366C39.4406 37.3097 40.1215 38.0239 40.0513 39.0446C39.9861 40.3429 39.5779 41.4623 40.021 42.7642C40.5262 44.0271 41.1608 45.3984 41.6282 46.7022C41.8172 47.0804 42.101 47.3117 42.4792 47.3957C43.2355 47.5217 44.181 47.0179 45.3155 45.8835C46.1558 44.9591 46.6389 43.9497 46.7649 42.8573C46.9312 41.8903 47.6129 41.0313 47.8364 40.0211V39.2022C48.046 38.7821 48.2246 38.3723 48.372 37.9732C48.5823 37.393 48.6054 36.6537 48.6551 35.988C49.3157 35.3274 49.9602 34.7377 50.42 33.9078C50.7141 33.4036 50.7987 32.9637 50.6726 32.5856C50.6322 32.5016 50.5269 32.417 50.3573 32.333L49.4112 31.9549C49.4273 31.4266 50.3987 31.5053 50.8606 31.5768L53.1289 30.1901C53.0448 33.0472 52.4884 35.8103 51.4591 38.4784C50.4297 41.1465 48.9071 43.5507 46.8903 45.6935C44.2013 48.6347 40.9757 50.7362 37.2151 51.9967C33.4546 53.2572 29.5787 53.5091 25.5871 52.7528C26.2743 51.5388 26.671 50.1708 27.4792 48.9705C27.4792 48.3402 27.5732 47.8045 27.7622 47.3633C28.5644 45.5075 29.8732 45.0246 31.3868 43.5829C32.9142 41.991 32.8998 40.1098 32.9616 37.8154C32.9408 36.3631 30.6188 35.4717 29.5574 34.6638C27.0974 33.006 25.5351 30.5669 22.027 31.2919C20.7733 31.4197 20.4698 31.6634 19.5365 30.8835L19.1585 30.6935L19.1908 30.5681L19.3484 30.2527C19.7249 29.8589 19.1904 29.3637 18.6854 29.527C18.5804 29.548 18.4657 29.5593 18.3397 29.5593C18.2245 28.9964 17.8468 28.4728 17.7717 27.8572C18.3599 28.3193 18.8655 28.6671 19.2857 28.8982C19.7057 29.1293 20.0629 29.2872 20.3572 29.3712C20.6513 29.4973 20.9032 29.5386 21.1132 29.4966C21.5754 29.4126 21.8367 28.9502 21.8997 28.1099C21.9627 27.2696 21.9326 26.3033 21.8066 25.2109C21.9326 25.0429 22.0154 24.8738 22.0574 24.7056C22.5015 22.4092 23.6775 22.9128 25.4617 22.2493C25.7558 22.0812 25.8178 21.8707 25.6497 21.6186C25.6497 21.5766 25.6403 21.5559 25.6194 21.5559C25.5984 21.5559 25.5871 21.5333 25.5871 21.4913C26.557 21.0042 27.1283 20.0069 27.7299 19.0977C27.2173 18.2854 26.4215 17.6071 25.5244 17.1429C25.0433 16.5495 23.1544 16.9133 22.7508 15.946C22.4146 15.904 22.1628 15.8401 21.9947 15.7561C20.2931 14.6534 19.5743 12.725 17.7413 11.9434C17.0059 11.8804 16.2804 11.8917 15.5662 11.9757C17.709 10.2531 20.0417 8.9711 22.5627 8.1307V8.1307ZM7.24735 25.9043C7.6255 26.5345 8.0879 27.1022 8.6341 27.6064C11.4691 30.2107 14.1338 30.7626 17.7717 32.0802C17.9396 32.2063 18.1708 32.4167 18.4651 32.7108C18.8614 33.0117 19.1968 33.372 19.6011 33.6569C19.6011 33.867 19.5692 34.1602 19.5061 34.5384C19.4431 34.9165 19.4318 35.5256 19.4738 36.3659C19.5953 38.7042 21.5236 40.5552 22.0574 42.7944C21.584 45.6964 21.5772 48.5486 21.2387 51.4286C18.3815 50.2522 15.8722 48.5717 13.7083 46.3868C11.5444 44.202 9.87335 41.6606 8.69685 38.7614C7.85655 36.6606 7.3208 34.527 7.0897 32.3632C6.8583 30.1993 6.911 28.0471 7.24735 25.9043V25.9043Z" fill="#23DBA8"/>
</svg>
