<svg xmlns="http://www.w3.org/2000/svg" width="1637.86" height="823.202" viewBox="0 0 1637.86 823.202">
  <g id="Сгруппировать_59" data-name="Сгруппировать 59" transform="translate(-141 -160)">
    <path id="Контур_33" data-name="Контур 33" d="M161.05,2272.758l-8.937,7.739-41.982-10.8-14.17-14.151v-9.8l-6.579-10.092-7.12-14.684-3.972-23.823-12.7-22.348-6.031-21.267v-16.357L68.2,2115.61l5.5-19.026-5.5-14.427-6.392-15.279-2.249-12.1-5.592-15.613L40.8,2030.755l-11.951-9.525-10.445-12.2L14,1995.41v-12.93l-4.521-8.534c.466.465-9.253-8.451-9.253-8.451.466.931-7.467-6.259-7.467-6.259,0,1.4-2.9-9.308-2.9-9.308L-4.015,1940v-12.163l8.338-10.063L14,1908.7l4.41-9.086v-13.965L14,1876.278l-4.521-6.09,13.04-3.013,8.813-6.839,3.4-8.969,3.855-4.871h7.459l56.1,13.84,5.649,6.839,7.079,9.1,6.056,3.637,15.8,2.266,9,3.47,9.112,10.377,3.34,10.328,2.876,11.417,5.4,4.141h12.8l18,10.61,17.825,2.63,10.48,12.614,17.789,6.766,4.519,10.961-1.889,16.985-5.618,12.93-8.069,13.617-6.733,9.241v12.487l3.918,8.409v15.613l-12.287,8.674-11.036,6.645-15.517,8.8-2.89,6.3,2.89,11.393-2.89,7.487-3.59,9.619-8.639,6.393,3.738,5.315s10.074,8.833,8.491,11.777-14.82,0-14.82,0H145.723l3.577,16.357v5.847l-3.577,4.681-4.8,3.429h-10.8v7.31l-3.781,5.547-7.288,4.359,4.812,7.387v5.055l-6.729,11.563v8.509l9.205,7.438-2.476,7.848-2.946,11.228,9.2,15.235,10.8,6.9,20.124,6.891" transform="translate(424.846 -1297.294)" fill="#23dba8"/>
    <path id="Контур_29" data-name="Контур 29" d="M685.531,407.692c.589,3.156,1.168,6.48.133,9.52s-4.292,5.58-7.368,4.648c-2.387-.723-3.765-3.121-5.46-4.949-9.425-10.167-30.689-4.281-36.511-16.859-2.376-5.134-.761-11.283-2.382-16.7a14.878,14.878,0,0,0-15.067-10.228,30.986,30.986,0,0,0-8.671,2.586,218.779,218.779,0,0,1-57.446,14.357,47.222,47.222,0,0,0-11.038,2.007C533.626,395,528.1,402.5,524.16,410.152s-6.841,15.934-12.118,22.732c-5.545,7.144-13.316,12.146-20.565,17.558a20.968,20.968,0,0,0-6.784,7.1c-1.571,3.224-1.483,6.973-1.361,10.557l1.482,43.526c.191,5.6.43,11.4,2.937,16.407,3.131,6.256,9.317,10.354,13.609,15.881a31.088,31.088,0,0,1,6.458,19.864c-.091,2.881-.378,6.289,1.868,8.1a8.219,8.219,0,0,0,4.593,1.32l58.924,4.819c10.365.847,21.852,2.241,28.619,10.132,3.194,3.724,5.759,9.08,10.651,9.479,2.1.171,4.14-.689,6.239-.855,5.295-.419,9.947,3.6,12.882,8.02a35.559,35.559,0,0,1,5.719,22.831c-.481,5.046-2.047,9.951-2.384,15.008-1.284,19.243,15.041,35.962,15.358,55.245.186,11.342-5.2,21.94-10.456,32,8.479,12.835,1.536,29.927,4.912,44.932,3.2,14.235,15.082,25.38,18.042,39.668,1.355,6.541,1.433,14.59,7.206,17.959a16.438,16.438,0,0,0,8.154,1.631,107.558,107.558,0,0,0,48.949-11.135c7.138-3.54,14.535-8.823,15.782-16.687,1.005-6.342-2.213-13.436,1.062-18.959,3.86-6.51,13.75-5.995,19.43-11,9.215-8.121,2.029-23.608,5.763-35.3,3.356-10.513,14.909-16.1,20.635-25.535a45.364,45.364,0,0,0,4.8-12.986,185.089,185.089,0,0,0,4.879-33.12,198.358,198.358,0,0,1,1.5-20.287c6.174-38.327,44.094-63.992,56.406-100.812,1.176-3.516,1.728-8.2-1.4-10.19a8.971,8.971,0,0,0-5.962-.624l-27.162,3.422c-3.374.425-6.95.822-10.048-.578s-5.319-5.317-3.676-8.291c4.613-8.35-4.876-18.9-9.092-27.459a405.133,405.133,0,0,0-40.38-65.436,6.65,6.65,0,0,1-1.77-3.841l7.709.257c-2.6-9.331-6.9-19.541-15.969-22.954-5.112-1.923-10.773-1.258-16.227-.96C717.74,412.437,700.992,410.08,685.531,407.692Z" transform="translate(380.727 33.907)" fill="#23dba8"/>
    <path id="Контур_30" data-name="Контур 30" d="M1072.027,590.064c.941-5.157,6.089-9.71,4.485-14.7-1.108-3.451-5.114-5.155-8.742-5.24s-7.189.994-10.816,1.1a52.706,52.706,0,0,0-7.083.1c-7.2,1.182-11.637,8.721-18.422,11.4-4.125,1.63-8.759,1.318-13.05,2.445-9.739,2.558-15.9,11.753-22.71,19.166A81.06,81.06,0,0,1,954.554,628.3c-5.538,1.281-11.491,2.1-15.893,5.694-5.828,4.758-7.264,12.915-8.561,20.323A335.446,335.446,0,0,1,913.744,714.3l23.126,2.95c4.4.561,8.953,1.109,13.19-.191a38.291,38.291,0,0,0,8.675-4.617,86.655,86.655,0,0,1,33.836-12.2c6.057-.831,12.405-.983,18.089,1.266s10.559,7.349,11.035,13.438a14.216,14.216,0,0,1,14.2,3.45,24.656,24.656,0,0,1,6.779,13.521c.609,3.161,1.219,6.948,4.154,8.274,2.4,1.082,5.143-.083,7.763-.293,8.892-.711,16.27,9.647,25.008,7.863,9.373-1.913,11.675-15.937,20.818-18.746,5.251-1.613,12.617.348,15.132-4.532,2.217-4.3-2.206-9.266-1.75-14.082.563-5.931,7.564-8.448,12.962-10.979,18.61-8.724,27.442-33.749,18.424-52.206-5.343-10.936-15.856-19.544-17.8-31.557-1.493-9.243,2.153-20.021-3.745-27.3-3-3.7-8.081-5.744-9.866-10.16-1.124-2.78-.672-5.934-1.277-8.87s-3.169-6.008-6.071-5.247c-8.425,2.209-11.113,28.212-15.624,34.53C1083.944,608.222,1069.868,601.9,1072.027,590.064Z" transform="translate(630.116 120.023)" fill="#23dba8"/>
    <path id="Контур_32" data-name="Контур 32" d="M472.158,277.318a55.8,55.8,0,0,0-3.65-13.967,6.323,6.323,0,0,0-3.215-3.959,6.627,6.627,0,0,0-3.19-.036l-16.38,2.506a6.28,6.28,0,0,0-3.737,1.452c-2.133,2.243-.033,5.854-.1,8.949-.073,3.479-3.166,6.3-6.52,7.238a24.653,24.653,0,0,1-10.359-.128l-22.9-3.558a37.764,37.764,0,0,0,17.327-11.559c3.014-3.569,4.618-10.233.262-11.924a10.7,10.7,0,0,0-3.978-.319c-10.377.081-18.543-8.581-28.257-12.228A31.249,31.249,0,0,0,352.3,250.263l12.2.588a5.417,5.417,0,0,1,3.25.866c2.674,2.2-.65,6.415-.274,9.854.489,4.468,6.424,5.422,10.9,5.874s10.148,4.085,8,8.032c-22.484,7.742-45.364-15.134-68.977-12.318-5.976.713-11.62,3.06-17.454,4.536-35.643,9.015-72.492-15.039-108.9-9.944a138.327,138.327,0,0,0-23.773,6.268c-4.956,1.627-10.125,3.384-13.726,7.157s-4.971,10.224-1.56,14.169a79.8,79.8,0,0,1-27.955-2.656,15.655,15.655,0,0,1,8.052,13.8,165.9,165.9,0,0,0-42.49,12.952,71.546,71.546,0,0,0,8.794,11.711L79.792,333.083c6.279,1.581,9.525,10.14,5.874,15.486,6.51-2.9,10.545-10.385,17.507-11.9,4.561-.995,9.2.87,13.528,2.622s9.082,3.451,13.561,2.136,7.783-7.121,4.937-10.82a231.812,231.812,0,0,1,58.867-9.194,7.384,7.384,0,0,1,4.458.846c2.6,1.8,1.912,5.688,1.773,8.842s2.32,7.3,5.14,5.878c-3.318,2.876-.482,8.291,2.7,11.316s7.02,7.2,5.071,11.133c-.509,1.027-1.371,1.848-1.861,2.885-1.445,3.058.849,6.624,3.554,8.655s6.019,3.451,7.9,6.263,1.026,7.736-2.335,8.128l-9.552-12.124a24.856,24.856,0,0,0-6.452,12.223c10.129,8.277,11.652,25.125,3.173,35.084-4.333,5.089-10.5,8.182-15.874,12.151S181.406,442.313,181.419,449c.023,11.546-.92,22.273,3.408,32.979a507.967,507.967,0,0,0,27.589,57.54c2.729,4.88,6.257,10.228,11.786,11.068q-10.481-25.508-18.871-51.81c3.643.014,7.852.3,9.988,3.254,1.768,2.443,1.388,5.765,1.938,8.73a27.036,27.036,0,0,0,3.45,8.107l33.368,59.419c2.766,4.926,5.939,10.213,11.226,12.208,3.38,1.275,7.291,1.035,10.4,2.871,2.439,1.439,4.081,3.994,6.567,5.35,7.029,3.833,16.8-3.518,23.373,1.058,1.878,1.309,3.073,3.388,4.8,4.886,6.067,5.252,16.019,1.739,23.023,5.657,4.514,2.525,6.853,7.575,9.261,12.152,6.031,11.464,40.092,15.768,34.784,14.262-3.376-.941-6.99-1.045-10.21-2.429a14.335,14.335,0,0,1-6.223-19.889,17.843,17.843,0,0,0-3.051-21.468c-5.662-5.082-13.853-6.31-21.446-5.8-1.988-4.338,1.336-9.232,4.919-12.384s7.934-6.251,8.714-10.958c1.227-7.4-8.223-13.028-15.4-10.82s-11.756,9.175-14.783,16.043c-1.737,3.941-3.214,8.09-5.954,11.413s-7.152,5.7-11.326,4.636c-5.909-1.51-8.191-8.527-9.5-14.482-1.754-7.989-3.519-16.09-3.152-24.261s3.123-16.561,9.151-22.093c9.822-9.014,24.889-8.13,38.145-6.693-3.132-3.527-2.358-9.472.993-12.792a14.552,14.552,0,0,1,13.186-3.239,18.172,18.172,0,0,1,10.216,6.106c3.767,4.591,4.838,10.79,7.685,16s9.249,9.656,14.49,6.86c4.526-2.415,5.245-8.689,4.118-13.693s-3.519-9.869-3.111-14.981c.779-9.755,10.894-15.627,19.82-19.645s19.148-9.421,20.562-19.1a17.414,17.414,0,0,1,1.059-5.552,10.893,10.893,0,0,1,4-3.757c26.052-17.211,52.537-34.632,82.313-44.037,1.549-.489,1.731.054,3.31-.329,2.21-1.277.746-4.808-1.373-6.231s-4.95-2.514-5.487-5.008c-.4-1.833.685-3.634.966-5.488.69-4.557-4.763-8.763-9-6.942-2.392-3.167,2.341-6.846,6.168-7.9a167.547,167.547,0,0,1,35.188-5.746,6.339,6.339,0,0,1,4,.681c2,1.384,1.743,4.559.327,6.534s-3.62,3.216-5.385,4.888a14.692,14.692,0,0,0-3.813,14.78c6.212,3.159,12.967,6.411,19.847,5.3s12.988-8.841,9.754-15.014c-3.012-5.748-12.059-7.044-13.614-13.344-1.822-7.376,8.623-13.936,6.27-21.16-1.031-3.164-4.185-5.027-6.606-7.311a19.834,19.834,0,0,1-4.343-22,25.042,25.042,0,0,1-21.958-6.869c-5.252-5.3-9.442-13.657-16.9-13.42-6.844.218-12.739,8.2-19.138,5.764-1.574-.6-3.234-1.818-4.76-1.1a3.932,3.932,0,0,0-1.775,2.946c-1.626,7.773,1.171,16.629-3.066,23.346-4.611,7.309-15.278,8.322-20.868,14.913-3.035,3.578-4.21,8.4-7,12.171s-8.71,6.17-12.057,2.883a16.61,16.61,0,0,0-4.515-20.2A44.351,44.351,0,0,0,426.933,341a59.154,59.154,0,0,1-11.14-6.207,10.972,10.972,0,0,1-4.09-4.375,9.965,9.965,0,0,1,.28-6.918A28.293,28.293,0,0,1,434.5,304.843c4.457-.606,9.645-.393,12.594-3.788,1.561-1.8,2.38-4.512,4.645-5.242a6.853,6.853,0,0,1,4.289.528l16.636,5.854a11.679,11.679,0,0,0,5.926.98,4.017,4.017,0,0,0,3.474-4.221c-.532-2.762-4.783-4.087-4.4-6.873a4.588,4.588,0,0,1,1.392-2.34,59.488,59.488,0,0,1,47.173-18.622c2.1,3.448-1.221,7.53-3.984,10.473s-4.984,8.2-1.642,10.467a9.165,9.165,0,0,0,4.43,1,38.687,38.687,0,0,1,11.79,3.575q8.623,3.751,16.915,8.209c-.488-3.644-.954-7.482.427-10.889s5.308-6.079,8.738-4.752c3.305,1.279,5,5.654,8.522,6.055,4.7.535,6.55-6.4,4.588-10.7s-5.846-7.9-6.171-12.615c-.219-3.181.992-7.126-1.549-9.052a6.918,6.918,0,0,0-3-1.051l-63.464-11.675c-3.769-.693-9.214-.162-9.381,3.665-.093,2.136,1.816,4.25.97,6.214-.9,2.1-3.866,1.9-6.026,2.646-3.35,1.15-5.031,5.127-4.709,8.653a24.074,24.074,0,0,0,3.975,9.752C482.536,279.361,476.286,279.044,472.158,277.318Z" transform="translate(61.208 -77.016)" fill="#00dba8"/>
    <path id="Контур_28" data-name="Контур 28" d="M714.443,289.095c4.094,4.346,8.681,8.954,14.6,9.711,10.461,1.338,17.983-9.477,22.772-18.871a9.222,9.222,0,0,0,9.625,8.53,19,19,0,0,0,7.239-2.829,142.645,142.645,0,0,1,67.563-17.46,7.3,7.3,0,0,1,5.572-8.019c4.8-.952,9.128,3.2,11.445,7.511s3.761,9.31,7.441,12.537,10.807,3.087,12.261-1.587c1.4-4.487-3.28-8.313-7.165-10.959s-7.979-7.541-5.363-11.445c19.846-4.392,39.814-8.8,60.122-9.673a25.184,25.184,0,0,0,10.121-1.743c3.1-1.519,5.558-4.968,4.725-8.315a22.921,22.921,0,0,1-23.916-9.018c28.178-2.325,58.148-4.306,83.12,8.949,3,6.431-12.276,11.782-8.19,17.583,1.3,1.85,3.915,2.067,6.178,2.109,17.353.322,34.807.638,51.965-1.981,6.27-.957,12.6-2.308,18.9-1.532,10.485,1.293,19.454,8.287,29.769,10.567,4.2.928,8.906.96,12.445-1.482s5.061-8,2.16-11.174c9.712-9.516,25.833-7.158,38.645-2.6s24.952,11.9,38.514,12.919c9.725.728,19.584-1.887,29.194-.225,6.039,1.045,11.658,3.73,17.56,5.38,11.163,3.121,22.97,2.462,34.56,2.612A242.209,242.209,0,0,1,1352.6,285.73a25.658,25.658,0,0,1,9.593,5.666c2.557,2.737,3.86,6.99,2.142,10.318l-28.392-4.147c2.675,5.265,9.6,6.162,15.216,7.978s11.448,8.021,8.07,12.865c-6.089-1.938-11.608,4.148-14.684,9.748s-6.824,12.307-13.207,12.648c-5.714.306-12.625-4.559-16.35-.216a111.468,111.468,0,0,1,13.138,21c3.681,7.664,6.3,17.322,1.328,24.218a6.277,6.277,0,0,1-3.357,2.6c-4.062,1.028-6.7-3.94-9.614-6.951-3.671-3.794-9.223-4.869-14.194-6.649s-10.208-5.28-10.6-10.545c-.242-3.275,1.487-6.32,2.762-9.348a36.014,36.014,0,0,0,2.737-16.153c-.279-4.443-1.525-9.065-4.718-12.17s-8.7-4.089-12.129-1.246c-1.6,1.327-2.881,3.449-4.957,3.528-3.669.14-6.486-6.254-9.437-4.071a10.023,10.023,0,0,1-1.363,6.706c-8.808,7.658-22.339,4.419-33.695,7.124a63.263,63.263,0,0,0-15.373,6.712,9.886,9.886,0,0,0-4.394,3.687c-1.418,2.754.145,6.281,2.643,8.112a21,21,0,0,0,8.717,2.975c13.844,2.621,27.889,6.679,38.819,15.568s18.1,23.584,14.638,37.238l-27.3-26.079q1.556,16.425,1.765,32.94a14.794,14.794,0,0,1-.865,6.336c-1.946,4.3-7.221,5.744-11.844,6.692a9.274,9.274,0,0,0-7.121,11.883c1.643,5.352,5.737,9.524,9.486,13.681s7.439,8.882,7.931,14.458-3.717,11.861-9.3,11.474c-4.235-.294-7.376-4.084-9.183-7.924s-2.881-8.118-5.594-11.381c-8.214-9.876-26.664-5.645-34.022-16.173a16.633,16.633,0,0,0-3.442,15.832c3.423-2.142,8.11-.152,10.682,2.961s3.786,7.1,5.806,10.6c2.726,4.718,7.063,8.9,7.444,14.335a46.813,46.813,0,0,0,.1,6.165c.676,3.293,3.46,5.658,5.39,8.41,4.492,6.4,4.27,15.2,1.375,22.471s-8.1,13.339-13.249,19.227c-9,10.283-18.181,20.505-28.849,29.045-3.044,2.437-6.292,4.833-8.188,8.239s-1.994,8.188.92,10.78c-2.085.1-5.823,1.129-7.908,1.234a183.724,183.724,0,0,1-.477-25.142c-8.226-3.949-17.084,6.626-16.022,15.688s7.617,16.332,12.285,24.172c3.413,5.733,5.95,12.417,4.81,18.991s-7.009,12.638-13.657,12.058c-10.575-.922-15-16.1-25.469-17.835a4.279,4.279,0,0,0-2.756.273c-1.554.853-1.825,2.932-1.912,4.7-.429,8.69-.8,17.724,2.593,25.736,4.964,11.72,17.787,21.564,15.1,34-14.491-6.734-22.025-22.98-25.445-38.585s-3.991-31.987-10.123-46.74c-4.656,5.966-14.443,1.034-18.7-5.225-4.033-5.934-6.516-12.8-10.43-18.812s-9.907-11.4-17.076-11.73c-7.516-.347-14.035,4.81-19.768,9.682-4.714,4.006-9.553,8.17-12.309,13.708-4.01,8.059-2.961,17.559-3.154,26.558-.209,9.728-2.271,19.992-8.9,27.114s-18.874,9.6-26.189,3.184c-3.819-3.351-5.668-8.357-7.315-13.163a644.082,644.082,0,0,1-19.8-70.682c-1.229,5.459-6.025,12.5-10.605,9.279a9.5,9.5,0,0,1-2.443-3.147c-8.544-14.478-24.368-23.161-40.355-28.368s-32.809-7.635-48.619-13.358a123.17,123.17,0,0,1-25.221-12.559A19.825,19.825,0,0,0,826.8,538.22c3.507,6.208,11.443,9.8,18.237,7.63,3.511-1.121,6.476-3.558,9.958-4.761s8.159-.612,9.682,2.743c1.458,3.211-.746,7.1.348,10.449,1.665,5.107,9.369,5.5,12.063,10.147,2,3.458.355,8.049-2.507,10.839s-6.681,4.32-10.174,6.263c-11.336,6.3-19.4,17.059-29.3,25.429s-23.884,14.48-35.691,9.112c2.815-14.247-14.161-24.706-17.284-38.889-1.028-4.668-.495-9.627-1.962-14.176-2.124-6.586-7.97-11.115-12.765-16.106a63.2,63.2,0,0,1-17.343-45.989c.26-5.861,1.336-11.818,0-17.531s-6.067-11.243-11.93-10.984c-13.391.591-30.262,1.587-37.287-9.825-2.507-4.073-3.6-10.038.027-13.159,2.557-2.2,6.333-1.994,9.691-1.664l30.172,2.967c7.057.694,14.685,1.267,20.741-2.421s8.68-13.478,3.073-17.817c-4.1-3.171-11.437-3-12.629-8.04-.992-4.2,3.657-8.962,1.146-12.47-1.8-2.516-5.847-1.818-8.3.068s-4.232,4.644-6.976,6.072c-4.814,2.5-10.567.121-15.747-1.5s-12.125-1.758-14.637,3.052c-2.81,5.379,2.493,12.427-.3,17.817-3.687,7.126-16.172,3.069-21.35,9.2-5.941,7.034,4.043,17.522,2.04,26.507a16.509,16.509,0,0,1-16.261-.913,15.787,15.787,0,0,1-6.826-14.7c.5-4.042,2.6-8.168,1.191-11.988-1.142-3.088-4.244-4.927-7.126-6.52l-29.321-16.2c-2.722,5.048.72,11.307,5.023,15.1s9.7,6.648,12.523,11.638a15.273,15.273,0,0,1-5.75,20.14,3.526,3.526,0,0,1-2.906.507,4.055,4.055,0,0,1-1.884-2.534c-5.173-13.235-12.941-26.284-25.359-33.2s-30.261-5.492-38.4,6.154c-1.935,2.766-3.232,5.92-4.917,8.844-8.951,15.539-28.143,22.9-46.073,22.416a9.149,9.149,0,0,1-5.026-1.181c-2.9-2-2.768-6.246-2.324-9.739l1.882-14.822c.378-2.976.926-6.266,3.282-8.124,3.322-2.619,8.113-.966,12.343-1.027a15.642,15.642,0,0,0,14.2-10.955,17.619,17.619,0,0,0-4.908-17.527c-1.938-1.82-4.541-4.107-3.517-6.561a5.427,5.427,0,0,1,3.805-2.561c7.6-2.206,15.627-2.784,23.1-5.387s14.717-7.928,16.486-15.638c.543-2.363.79-5.225,2.913-6.4a8.732,8.732,0,0,1,3.365-.687,16.372,16.372,0,0,0,14.046-17.066c3.581-2.5,8.6-.661,12.062,2s6.522,6.175,10.737,7.322c7.855,2.137,15.446-4.816,23.587-4.848,3.423-.014,6.967,1.2,10.188.036,3.265-1.176,5.215-4.426,7.721-6.826s6.9-3.865,9.217-1.279L672.89,334.07a28.7,28.7,0,0,0,23.352-4.221l-25.466-8.6a5.533,5.533,0,0,1-2.381-1.273c-1.852-1.993-.013-5.1,1.493-7.365,3.6-5.42,4.206-14.348-1.716-17.046-4.043-1.842-8.683.369-12.563,2.532l-18.587,10.361c-.591,3.532,3.729,5.534,6.407,7.913a10.739,10.739,0,0,1-7.006,18.765,13.381,13.381,0,0,1,2.391,11.345l-12.506.9a5.418,5.418,0,0,1-4.056-.791c-1.338-1.188-1.156-3.269-1.467-5.03-.748-4.251-4.912-7.231-9.161-7.995s-8.6.215-12.8,1.182a7.644,7.644,0,0,1-5.5-.127,5.5,5.5,0,0,1-2.177-2.748c-1.845-4.472-.121-9.728,2.842-13.552s7.02-6.62,10.662-9.8a62.115,62.115,0,0,0,18.478-28.652c6.884-2.884,14.012-6.8,20.9-9.685a63.958,63.958,0,0,1,34.37-6.657l23.314.445c6.9.132,13.992.3,20.375,2.931s11.992,8.321,12.433,15.209a4.668,4.668,0,0,1-1.5,4.268,5.51,5.51,0,0,1-2.948.664C723.626,287.265,720.881,288.869,714.443,289.095Z" transform="translate(399.887 -65.779)" fill="#23dba8"/>
  </g>
</svg>
